<svg width="22" height="22" viewBox="0 0 22 22" fill="none" xmlns="http://www.w3.org/2000/svg">
<path d="M0 20.087C0 21.1435 0.856499 22 1.91304 22H7.65217C8.70872 22 9.56522 21.1435 9.56522 20.087V14.3478C9.56522 13.2913 8.70872 12.4348 7.65217 12.4348H1.91304C0.856499 12.4348 0 13.2913 0 14.3478V20.087Z" fill="white"/>
<path d="M0 7.65217C0 8.70872 0.856499 9.56522 1.91304 9.56522H7.65217C8.70872 9.56522 9.56522 8.70872 9.56522 7.65217V1.91304C9.56522 0.856499 8.70872 0 7.65217 0H1.91304C0.856499 0 0 0.856499 0 1.91304V7.65217Z" fill="white"/>
<path d="M12.4348 20.087C12.4348 21.1435 13.2913 22 14.3478 22H20.087C21.1435 22 22 21.1435 22 20.087V14.3478C22 13.2913 21.1435 12.4348 20.087 12.4348H14.3478C13.2913 12.4348 12.4348 13.2913 12.4348 14.3478V20.087Z" fill="white"/>
<path d="M12.4348 4.78261C12.4348 7.42397 14.576 9.56522 17.2174 9.56522C19.8588 9.56522 22 7.42397 22 4.78261C22 2.14125 19.8588 0 17.2174 0C14.576 0 12.4348 2.14125 12.4348 4.78261Z" fill="white"/>
</svg>
